<svg xmlns="http://www.w3.org/2000/svg" viewBox="0 0 300 300"><title>周: 3 continuous closed contours</title><path d="M 261.2279,30.0000 L 53.8492,30.0000 L 53.8492,126.7676 L 53.8259,132.4176 L 53.7560,137.9742 L 53.6396,143.4374 L 53.4766,148.8071 L 53.2670,154.0834 L 53.0108,159.2663 L 52.7080,164.3558 L 52.3586,169.3518 L 51.9627,174.2544 L 51.5202,179.0636 L 51.0311,183.7793 L 50.4955,188.4016 L 49.9132,192.9305 L 49.2844,197.3660 L 48.6089,201.7080 L 47.8869,205.9566 L 47.1184,210.1118 L 46.3032,214.1735 L 45.4414,218.1418 L 44.5331,222.0167 L 43.5782,225.7982 L 42.5767,229.4862 L 41.5287,233.0808 L 40.4341,236.5820 L 39.2928,239.9897 L 38.1050,243.3040 L 36.8706,246.5249 L 35.5897,249.6523 L 34.2621,252.6863 L 32.8880,255.6269 L 31.4673,258.4741 L 30.0000,261.2279 L 42.0617,270.0000 L 43.6307,267.0013 L 45.1510,263.9333 L 46.6226,260.7959 L 48.0454,257.5892 L 49.4195,254.3132 L 50.7449,250.9678 L 52.0216,247.5532 L 53.2496,244.0691 L 54.4288,240.5158 L 55.5593,236.8930 L 56.6411,233.2010 L 57.6742,229.4396 L 58.6585,225.6089 L 59.5942,221.7088 L 60.4811,217.7395 L 61.3192,213.7007 L 62.1087,209.5927 L 62.8495,205.4153 L 63.5414,201.1686 L 64.1848,196.8525 L 64.7793,192.4671 L 65.3252,188.0124 L 65.8223,183.4883 L 66.2707,178.8949 L 66.6704,174.2322 L 67.0213,169.5001 L 67.3236,164.6987 L 67.5771,159.8279 L 67.7819,154.8879 L 67.9379,149.8784 L 68.0453,144.7997 L 68.1040,139.6516 L 246.6990,139.6516 L 246.6990,246.6990 L 246.6691,247.3458 L 246.5791,247.9840 L 246.4292,248.6137 L 246.2193,249.2347 L 245.9495,249.8473 L 245.6197,250.4512 L 245.2298,251.0465 L 244.7801,251.6333 L 244.2897,252.1795 L 243.7778,252.6527 L 243.2446,253.0532 L 242.6899,253.3809 L 242.1138,253.6358 L 241.5163,253.8178 L 240.8974,253.9270 L 240.2570,253.9634 L 224.3318,253.9463 L 212.4671,253.8949 L 204.6631,253.8092 L 202.2837,253.7536 L 200.9195,253.6893 L 204.8944,269.1776 L 213.1889,269.1519 L 220.5968,269.0748 L 227.1181,268.9463 L 232.7527,268.7664 L 235.2376,268.6572 L 237.5007,268.5351 L 239.5422,268.4002 L 241.3621,268.2524 L 242.9603,268.0918 L 244.3368,267.9184 L 245.4917,267.7320 L 246.4249,267.5329 L 247.2376,267.3139 L 248.0311,267.0681 L 248.8053,266.7956 L 249.5603,266.4963 L 250.2959,266.1702 L 251.0123,265.8174 L 251.7094,265.4378 L 252.3872,265.0314 L 253.0457,264.5983 L 253.6850,264.1384 L 254.3050,263.6516 L 254.9057,263.1382 L 255.4872,262.5980 L 256.0494,262.0310 L 256.5923,261.4372 L 257.1160,260.8167 L 257.6138,260.1715 L 258.0797,259.5038 L 258.5134,258.8137 L 258.9149,258.1011 L 259.2844,257.3660 L 259.6216,256.6084 L 259.9268,255.8283 L 260.1999,255.0257 L 260.4408,254.2006 L 260.6496,253.3531 L 260.8263,252.4831 L 260.9709,251.5905 L 261.0833,250.6755 L 261.1636,249.7380 L 261.2118,248.7780 L 261.2279,247.7956 Z M 164.4603,77.9726 L 164.4603,44.5288 L 246.6990,44.5288 L 246.6990,77.9726 Z M 68.7893,77.9726 L 68.7893,44.5288 L 149.5203,44.5288 L 149.5203,77.9726 Z M 164.4603,125.9452 L 164.4603,91.9532 L 246.6990,91.9532 L 246.6990,125.9452 Z M 68.7893,125.9452 L 68.7893,91.9532 L 149.5203,91.9532 L 149.5203,125.9452 Z M 215.8595,163.5008 L 98.2582,163.5008 L 98.2582,230.9366 L 215.8595,230.9366 Z M 112.5128,216.9560 L 112.5128,177.8926 L 201.7418,177.8926 L 201.7418,216.9560 Z" fill="#e3e7e0" fill-rule="evenodd"/><path d="M 53.0108,159.2663 L 52.7080,164.3558 L 52.3586,169.3518 L 51.9627,174.2544 L 51.5202,179.0636 L 51.0311,183.7793 L 50.4955,188.4016 L 49.9132,192.9305 L 49.2844,197.3660 L 48.6089,201.7080 L 47.8869,205.9566 L 47.1184,210.1118 L 46.3032,214.1735 L 45.4414,218.1418 L 44.5331,222.0167 L 43.5782,225.7982 L 42.5767,229.4862 L 41.5287,233.0808 L 40.4341,236.5820 L 39.2928,239.9897 L 38.1050,243.3040 L 36.8706,246.5249 L 35.5897,249.6523 L 34.2621,252.6863 L 32.8880,255.6269 L 31.4673,258.4741 L 30.0000,261.2279 L 42.0617,270.0000 L 43.6307,267.0013 L 45.1510,263.9333 L 46.6226,260.7959 L 48.0454,257.5892 L 49.4195,254.3132 L 50.7449,250.9678 L 52.0216,247.5532 L 53.2496,244.0691 L 54.4288,240.5158 L 55.5593,236.8930 L 56.6411,233.2010 L 57.6742,229.4396 L 58.6585,225.6089 L 59.5942,221.7088 L 60.4811,217.7395 L 61.3192,213.7007 L 62.1087,209.5927 L 62.8495,205.4153 L 63.5414,201.1686 L 64.1848,196.8525 L 64.7793,192.4671 L 65.3252,188.0124 L 65.8223,183.4883 L 66.2707,178.8949 L 66.6704,174.2322 L 67.0213,169.5001 L 67.3236,164.6987 L 67.5771,159.8279 L 67.7819,154.8879 L 67.9379,149.8784 L 68.0453,144.7997 L 68.1040,139.6516 L 138.6911,139.6516 L 138.6911,125.9452 L 68.7893,125.9452 L 68.7893,91.9532 L 149.5203,91.9532 L 149.5203,125.9452 L 142.2911,125.9452 L 142.2911,139.6516 L 166.4746,139.6516 L 166.4746,125.9452 L 164.4603,125.9452 L 164.4603,91.9532 L 220.5016,91.9532 L 220.5016,77.9726 L 164.4603,77.9726 L 164.4603,44.5288 L 246.6990,44.5288 L 246.6990,77.9726 L 224.1015,77.9726 L 224.1015,91.9532 L 246.6990,91.9532 L 246.6990,125.9452 L 170.0746,125.9452 L 170.0746,139.6516 L 246.6990,139.6516 L 246.6990,246.6990 L 246.6691,247.3458 L 246.5791,247.9840 L 246.4292,248.6137 L 246.2193,249.2347 L 245.9495,249.8473 L 245.6197,250.4512 L 245.2298,251.0465 L 244.7801,251.6333 L 244.2897,252.1795 L 243.7778,252.6527 L 243.2446,253.0532 L 242.6899,253.3809 L 242.1138,253.6358 L 241.5163,253.8178 L 240.8974,253.9270 L 240.2570,253.9634 L 224.3318,253.9463 L 212.4671,253.8949 L 204.6631,253.8092 L 202.2837,253.7536 L 200.9195,253.6893 L 204.8944,269.1776 L 213.1889,269.1519 L 220.5968,269.0748 L 227.1181,268.9463 L 232.7527,268.7664 L 235.2376,268.6572 L 237.5007,268.5351 L 239.5422,268.4002 L 241.3621,268.2524 L 242.9603,268.0918 L 244.3368,267.9184 L 245.4917,267.7320 L 246.4249,267.5329 L 247.2376,267.3139 L 248.0311,267.0681 L 248.8053,266.7956 L 249.5603,266.4963 L 250.2959,266.1702 L 251.0123,265.8174 L 251.7094,265.4378 L 252.3872,265.0314 L 253.0457,264.5983 L 253.6850,264.1384 L 254.3050,263.6516 L 254.9057,263.1382 L 255.4872,262.5980 L 256.0494,262.0310 L 256.5923,261.4372 L 257.1160,260.8167 L 257.6138,260.1715 L 258.0797,259.5038 L 258.5134,258.8137 L 258.9149,258.1011 L 259.2844,257.3660 L 259.6216,256.6084 L 259.9268,255.8283 L 260.1999,255.0257 L 260.4408,254.2006 L 260.6496,253.3531 L 260.8263,252.4831 L 260.9709,251.5905 L 261.0833,250.6755 L 261.1636,249.7380 L 261.2118,248.7780 L 261.2279,247.7956 L 261.2279,30.0000 L 53.8492,30.0000 L 53.8492,126.7676 L 53.8259,132.4176 L 53.7560,137.9742 L 53.6396,143.4374 L 53.4766,148.8071 L 53.2670,154.0834 Z" fill="none" stroke="#216b52" stroke-width="1.5"/><path d="M 68.7893,77.9726 L 68.7893,44.5288 L 149.5203,44.5288 L 149.5203,77.9726 Z" fill="none" stroke="#7456a4" stroke-width="1.5"/><path d="M 190.8956,216.9560 L 112.5128,216.9560 L 112.5128,177.8926 L 201.7418,177.8926 L 201.7418,216.9560 L 194.4956,216.9560 L 194.4956,230.9366 L 215.8595,230.9366 L 215.8595,163.5008 L 98.2582,163.5008 L 98.2582,230.9366 L 190.8956,230.9366 Z" fill="none" stroke="#28668c" stroke-width="1.5"/></svg>